<svg height="128" preserveAspectRatio="xMidYMid meet" viewBox="0 0 128 128" width="128" xmlns="http://www.w3.org/2000/svg"><g fill="#1f1f1f"><path d="m65.125 127.8c-2.4125-.225-5.3375-.725-6.7875-1.175l-.8125-.25-.775-2.1625c-.425-1.175-1.25-3.75-1.8375-5.7125s-1.1875-3.9875-1.3375-4.5l-.2875-.9375-.925.0375c-1.7125.075-4.2-.3625-6.175-1.0875-1.4625-.5375-2.7375-1.1-5.1875-2.3125-1.2-.5875-2.85-1.3375-3.65-1.65-2.8625-1.125-2.95-1.2625-3.1125-5.275-.05-1.5625-.1375-3.3-.1875-3.8625l-.0875-1.0375-1.2125-1.125c-1.4625-1.35-3.625-3.725-5.025-5.5125-6.0375-7.75-9.575-17.4125-9.95-27.1375-.2625-6.8125.625-12.6125 2.925-18.925 2.4625-6.8125 6.9875-13.5625 12.35-18.425l1.5375-1.3875.075-1.0875c.1625-2.25.8-4.625 1.6-5.9875.5375-.9125 1.6375-2.0125 2.4-2.4125.5125-.275.6125-.3875.775-.9375.275-.95 1.0875-2.5375 1.7375-3.4 1.0375-1.375 3.075-3.025 5.3875-4.375 2.2625-1.3125 5.3625-3.0125 6.375-3.4875 1.8875-.9 6.7625-2.65 6.9125-2.4875.0375.0375.125.0125.2-.05.4125-.3375 4.225-.8625 6.95-.9625 6.1125-.225 12.175 1.2125 15.95 3.7625 2.6625 1.825 6.5125 5.725 8.4875 8.625 2 2.925 3.2875 7.55 3.8875 13.875l.075.875 1.4625 1.5125c1.4375 1.475 3.2125 3.6125 4.475 5.3875.8625 1.2 2.4125 3.675 2.4125 3.8625 0 .0875.05.175.1.2.25.0875 2.6875 5.0625 2.825 5.725.025.1.15.45.2875.7625.15.3125.4875 1.275.7625 2.125 2.8125 8.6375 3.15 17.9125.9625 26.6375-.825 3.3-1.85 6.1125-3.3375 9.225-.4625.9875-.9 1.8375-.95 1.875s-.2375.3625-.425.7125l-.35.6625.5125.25c1.2875.6625 2.1375 2.075 3.325 5.5625.9875 2.8875 1.3 4.1875 1.375 5.625.15 3.025-.8875 6.2625-2.5125 7.8875-.65.6375-.8875.7875-1.6375 1.0125-.475.15-1.2625.3375-1.75.4125-1.2625.2125-4.075.175-5.65-.0625-1.475-.2375-1.7875-.4125-2.2375-1.275l-.2375-.4375-1.75.075c-1.7375.0625-2.6125.225-3.95.7125l-.7125.2625-.075.625c-.1125.7875-.5125 1.225-1.425 1.55-.575.2-.6625.2875-.725.65-.175.9125.05 2.9625.55 5.2125.65 2.8375.75 3.9.475 4.85-.3625 1.2375-1.3375 1.9-3.575 2.4l-1.1875.2625-.0375.4375c-.025.2375.0125.95.0875 1.6.1375 1.15.1375 1.175-.175 1.7125-1.1125 1.9-3.6375 2.425-12 2.4875-2.5375.0125-4.875.0125-5.1875-.0125zm7.2875-2.4375c.325-.075.85-.1125 1.15-.075.3125.025.5625.0125.5625-.05s.2375-.1125.5375-.1125c1.2875 0 5.5625-.9125 5.675-1.2125.0375-.0875-.025-.75-.1375-1.45-.3125-1.975-.4375-3.6375-.6375-8.9-.1-2.675-.275-5.825-.375-7-.1-1.1625-.3-4.2375-.4375-6.8125-.2875-5.4125-.4375-6.8375-.7375-6.925-.1125-.0375-.7625-.15-1.45-.25-5.2875-.8-13.3-.475-21.375.8625-2.5875.425-2.4.3625-2.4625.8875-.025.2375-.0125.4625.025.4875.1125.075.4125 2.8875.325 3.0375-.0375.075-.025.15.05.175.0625.0125.15.4.175.85s.1.9125.1375 1.0375c.05.1125.0625.35.0375.525-.0375.1625-.025.325.0125.3375.125.05.6625 3.7125.575 3.85-.0375.075-.0125.125.05.125.075 0 .1375.125.1375.275 0 .3375.6375 3.7125 1.1375 6.0125.2.95.3375 1.775.3 1.85-.05.0625-.025.1125.0375.1125s.2375.575.4 1.2875c.35 1.575 1.475 5.6125 2.1375 7.7375l.5 1.6.65.1875c1.075.3125 3.3375.8 4.4375.9625.5625.0875 1.025.175 1.025.225 0 .0375.4125.075.9.0875.5.025 1 .075 1.1.1125.1.05.625.075 1.15.0625.525-.025 1.0375.0125 1.125.0625.0875.0625.5625.0875 1.0375.075.4875-.0125.9625.025 1.0625.0875.1.075.275.1125.375.075.1-.025.4625-.1125.7875-.2zm9.9125-6.2375c.55-.075 1.4-.2625 1.875-.425l.8625-.2875-.0125-1.3c-.0125-1.2875-.15-2.2875-.7375-5.1125-.1625-.7875-.35-1.85-.4375-2.3375l-.15-.9125h-.4625c-.25 0-.7875.0875-1.175.1875-.4.1-.9.1875-1.1125.1875h-.3875l.075 2.475c.125 4.175.3625 7.65.5125 7.65.0875 0 .6-.0625 1.15-.125zm-28.7-8.9875c0-.1875-.225-1.9625-.5-3.95-.675-4.8375-1.1125-8.5-1.2125-9.9125-.0375-.6375-.125-1.1875-.1875-1.225-.05-.0375-.1-.275-.1-.55 0-.475-.0125-.475-.65-.625-.475-.125-1.275-.1375-2.9375-.075-2.1625.075-2.2875.075-2.2875-.1375 0-.4.375-.775.9125-.925 1.1875-.3125 1.6-.5125 1.725-.825.15-.4.025-.9-.325-1.2875-.15-.175-.35-.4375-.425-.5875-.1625-.3125-.1875-.7875-.0375-.7875.0625 0 .625.325 1.25.7375 1.3875.8875 1.8625 1.1 2.05.9125.2-.2.4625-1.475.55-2.65.05-.625-.0125-2-.125-3.3125-.325-3.6625-.2375-5.2625.3125-5.7625.2875-.2625.6125-.15.6125.2375 0 .1625.0625.35.1375.425.125.125-.0375 3.75-.2125 4.5375-.0375.1625-.0625 1.4125-.0625 2.775.0125 2.3625.1 3.2375.4125 4.0125l.1375.35 1.0125-.075c.5625-.0375 1.9375-.1875 3.075-.3125 1.1375-.1375 2.425-.275 2.875-.3.45-.0375 1.625-.15 2.625-.25s1.9-.175 2-.175 1.0375-.0625 2.0625-.1375c1.4875-.1125 6.675-.3875 7.4125-.3875.3375 0 .125-.3375-.3125-.4875-1.825-.65-8.25-3.7625-9.35-4.5125-1.1125-.7625-1.15-1.6-.1375-2.975.675-.9.95-1.425.95-1.775 0-.3125-.075-.3125-.8125.0125-1.25.55-2.1375.075-2.9375-1.55-.5375-1.1125-1.9875-5.9875-2.2625-7.6l-.15-.95-2.975-1.475c-4.7-2.325-5.8875-3.1625-8.025-5.625-.5375-.6125-1.175-1.275-1.4125-1.4625l-.4375-.325-1.1.475c-3.6625 1.5875-7.4125 3.875-12.225 7.475l-2.5375 1.8875.375.825c.2.45.3375.8125.3.8125-.025 0 .025.125.125.2875.775 1.2 2.675 7.2875 3.6375 11.6625.425 1.9375 1.0875 5.5625 1.05 5.7625-.0125.05.0125.2.075.325.05.1125.0625.35.0375.525-.0375.1625-.025.325.0125.3375.2.0875.8375 6.7.95 9.7875.1125 2.775.125 2.8875.575 3.075.2125.075.45.2125.525.3.225.2125 4.7375 2.5625 6.475 3.375 2.7125 1.25 5.9125 2.2125 8.05 2.4.4125.0375.7625.075.7875.1.0125.0125.175 0 .3375-.0375.2375-.0375.3125-.1375.3125-.3875zm29.375-3.45c2.5375-.45 2.3-.2875 2.2125-1.425-.05-.525-.1625-2.05-.275-3.3875-.2875-3.6875-.5625-6.4125-.6875-6.6875-.05-.1375-.1625-.5875-.2375-1s-.2-.975-.275-1.2375l-.1375-.4875-1.2.075c-.675.0375-1.55.15-1.95.2375l-.7375.1625.0875 3.25c.075 2.975.35 8.125.525 10.0375.075.775.075.775.475.775.2125 0 1.2125-.1375 2.2-.3125zm17.75-1.4625c0-.0625.1875-.1.4125-.1.5875 0 2.0125-.325 2.5375-.575 1.6875-.8 2.925-3.0625 2.925-5.35 0-1.9125-1.5625-8.025-2.425-9.5-.625-1.075-2.0125-1.9375-3.1125-1.95-.4625 0-.85.1375-1.8125.6125-.6625.325-2.1375.925-3.275 1.3125-2.3875.8375-3.9375 1.55-4.4375 2.075l-.35.3625.2625 1.1625c.3875 1.675.625 3.2625.9625 6.6625.175 1.65.3125 3.05.3125 3.1125 0 .075 1.0375.075 2.6 0 1.425-.0625 3.175-.1125 3.9-.1 1.4 0 2.925.25 2.6125.425-.1.05-1.075.275-2.175.5-1.1.2125-2.25.5125-2.5625.65l-.5625.25.375.175c.2125.0875.5.1625.65.175.15 0 .3.0375.325.1.0375.05.6875.0875 1.45.0875s1.3875-.0375 1.3875-.0875zm-11.9375-.975c.275-.0375.9125-.2125 1.4125-.375l.9-.3v-1.4375c0-1.3875-.35-4.725-.6375-5.9875-.2375-1.125-.6375-2.3375-1.0125-3.175l-.3875-.85h-1.35-1.3625v.35c0 .4125.2375 2.2125.7 5.1875.175 1.1625.2875 2.1375.25 2.175-.0375.05-.0125.15.0625.2375s.1625.575.2 1.075c.025.5.125 1.4625.2 2.1375.1125 1.0375.1625 1.2125.325 1.1375.1125-.05.425-.125.7-.175zm-55.3625-12.0875c-.5875-4.625-1.275-7.4625-2.6375-10.975-.8125-2.1-2.45-6.6375-2.9375-8.125-.275-.8375-.425-1.6-.4625-2.3125-.1125-1.775.3-2.3 2.7625-3.575.7625-.3875 1.975-1.1125 2.7-1.6125 1.4375-.9875 3.3125-2.125 6.5625-4 3.85-2.225 4.5-2.6125 4.925-3.0125.3875-.35.425-.45.4125-1-.0125-.75-.2-1.2125-1.025-2.5375-.9875-1.5875-1.625-3.35-1.85-5.0625l-.0875-.725-.9375-.2875c-1.7375-.5125-2.775-1.125-3.9875-2.325-3.5-3.4875-4.7625-11.3125-2.3875-14.7875.425-.625.5-.825.5-1.375 0-.85-.125-1.575-.275-1.575-.0625 0-.7.5875-1.4125 1.3-6.0375 6.125-10.15 13.775-11.9375 22.1875-.7375 3.475-.925 5.3375-.925 9.3875-.0125 3.75.0625 4.725.5625 7.8125 1.175 7.1 4.3 14.2375 8.7625 19.975 1.125 1.45 3.725 4.375 3.8125 4.2875.0375-.025-.025-.775-.1375-1.6625zm49.2375-2.4375c.2125-.0625 1.3625-.1625 2.5625-.225 2.6125-.1375 3.6125-.3625 4.075-.9.45-.55.6375-.95 1.925-4.1625 2.6-6.5125 4.75-14 4.75-16.575 0-1.5-.275-1.9125-2.5-3.7-.5125-.4125-2.025-1.8-3.3625-3.0875-1.325-1.275-2.4625-2.325-2.5125-2.325s-.3375.2375-.6375.5375c-.3.2875-1 .8875-1.5375 1.3375-.55.45-1.0125.875-1.0375.9625-.05.15.2625.15.4125 0 .05-.05.3875-.0875.7375-.0875.525 0 .75.075 1.15.3625.5125.375 1.1125 1.1 1 1.2125-.0375.0375.1.425.2875.85 1.025 2.25 1.1125 7.0375.175 9.275-.1.225-.175.5375-.175.7 0 .325.55 1.1625 1.025 1.575.1875.15.375.4.4125.5375.1.3-.675 1.6875-4.0625 7.2375-3.1 5.0875-4 6.6125-4 6.825 0 .15.075.15.475-.025.25-.1125.6375-.25.8375-.325zm-4.6875-1.2125c0-.1875-2.3625-5.65-3.125-7.2-1.2125-2.5-3.05-5.35-3.3625-5.2375-.0875.025-.875.55-1.7375 1.15-2.55 1.7625-3.875 3.25-4.4625 5.0125-.1125.3625-.1875.675-.175.6875.2125.175 3.5375 1.9125 4.95 2.575.975.4625 1.7375.8875 1.6875.9375-.05.0625-.025.0625.05.025.0875-.05.7.15 1.375.4375 1.1375.475 4.4875 1.7 4.7125 1.7125.05.0125.0875-.0375.0875-.1zm3.9-1.3875c1.2625-1.775 2.175-3.225 4.4375-7.05 1.4875-2.5375 1.875-3.2875 1.7875-3.4625-.2625-.475-1.35-1.425-2-1.725-.575-.275-.8625-.325-1.75-.325-.7 0-1.1875.0625-1.4375.1875l-.375.1875-.15 2.3125c-.2625 4.2125-.7125 7.6-1.35 10.05-.175.6625-.3125 1.2375-.3125 1.2875 0 .125.1125-.025 1.15-1.4625zm11.4875.6125c2.65-1.2 4.925-1.925 6.8875-2.175l.5875-.075.6375-1.1125c7.275-12.7125 7.9-28.6875 1.625-41.825-1.925-4.0375-4.0875-7.3-7.175-10.85l-.425-.5-.0625.8125c-.0375.4375-.125 1.7625-.2 2.925-.2875 4.6-1.2 9.3375-2.6625 13.875-.5 1.5375-.725 2.0375-2.4 5.225-.8625 1.65-.8875 1.9625-.2125 2.8.5125.65.8625.975 4.7625 4.375 3.3875 2.9625 3.75 3.45 3.75 5.0375-.0125.5125-.1125 1.3625-.2375 1.875-.6 2.4375-4.9 15.8-6.2375 19.35-.2125.5625-.3625 1.025-.35 1.025.025 0 .7875-.3375 1.7125-.7625zm-13.15-.825c.5125-2.1125.7625-4.4625.95-8.6.0375-.8875.1-2.05.1375-2.575l.075-.9375-.7-.1625c-.4375-.1-1.075-.4-1.75-.8375-1.3625-.8875-1.65-.9375-2.8375-.425-.7.2875-1.075.3875-1.5375.3625-.5875-.0375-.6375-.0125-1.075.5l-.4625.5375.6625.9375c.375.525.9875 1.5 1.375 2.1625.6875 1.225 2.5 5.1375 2.575 5.575.025.1375.075.2625.1125.3.1125.1 1.6375 3.4125 1.65 3.6 0 .075.0625.15.125.15.075 0 .1.0375.05.075-.075.075.1625.4125.3.425.05 0 .2-.4875.35-1.0875zm-15.05-8.975c2.2625-.775 3.5875-1.55 5.8125-3.4.725-.6125 1.4625-1.2125 1.65-1.35.2875-.225.3375-.35.375-1.125l.0375-.875-.75-.3c-.4125-.1625-1.1375-.3625-1.625-.4375-.475-.0875-.8125-.1875-.7375-.225.0625-.05.5875-.2 1.175-.35 1.425-.3625 1.75-.55 1.75-.975 0-.325-.05-.3625-.7375-.5-.45-.1-1.1125-.3875-1.7625-.775-2.95-1.775-7.4375-3.325-8.65-2.9875-1.2.325-1.625 1.625-1.6125 4.925.0125 2.5125.1875 3.375 1.325 6.4625.975 2.6125.8 2.3875 1.8625 2.3125.4875-.025 1.3375-.2125 1.8875-.4zm21.7125-4.9625c.4125-.7875.5125-1.55.4375-3.325-.125-2.85-.7375-5.0875-1.55-5.6125-.5125-.3375-1.55-.275-2.6.175-.4875.2-1.6625.875-2.625 1.4875-.9625.625-1.8875 1.2125-2.0625 1.3s-.325.175-.35.1875c-.0125.0125.0875.4.2375.8375l.2625.825.775-.0625c.4625-.0375.9875.0125 1.325.125l.5625.175-.75.1c-.4125.05-.95.175-1.2125.275-.525.2125-.6.45-.55 1.9.0375 1.1-.1875.9625 2.45 1.45 1.5625.2875 3.5.5 4.875.55.525.0125.5875-.025.775-.3875zm-10.475-1.3375c1.1625-.65 1.0625-2.8875-.15-3.4625-.5125-.2375-1.2875-.175-1.875.1625-.2875.1625-.3875.325-.4375.6625-.05.4625.325 2.6.5 2.7625.275.2625 1.4.2 1.9625-.125zm-17.8875-4.8625c.2875-1.3375.275-1.625-.0625-1.7125-.1625-.025-1.1875-.1375-2.3-.2375-1.35-.125-2.25-.275-2.75-.45-1.125-.4-1.225-.4-1.275.1375-.025.375.0375.525.35.85.75.75 2.6375 1.6375 4.5625 2.1375 1.3.35 1.2375.3875 1.475-.725zm19.375-1.35c.8375-.6625 1.6-1.2375 1.675-1.2625.0875-.0375.1625-.1.1625-.1625 0-.125-1.1125.0625-3.0625.5-2.425.5625-3.625.6875-4.7125.5-1.725-.2875-1.9-.175-.85.525 1.15.7625 2.325 1.0875 3.9125 1.1h1.3375zm-18.0625-2.1125c.75-.7625 2.075-1 4.275-.775.6375.0625.85.05.65-.0375-2.375-1.025-7.6875-6.4375-9.125-9.325-.4125-.8125-.825-2.1-.75-2.325.025-.075.575.5875 1.225 1.475 4.15 5.6875 7.5125 8.4625 12.1875 10.025 2.75.9125 5.8875.7875 9.425-.4125 2.7-.9 6.15-2.9125 7.3875-4.2875.8625-.95 3.475-4.85 4.325-6.45 1.925-3.65 3.2375-7.95 3.9375-12.8875.325-2.3375.45-7.4125.25-10.8125-.325-5.6125-.775-7.2875-2.45-8.95-1.8875-1.875-4.45-2.525-6.2875-1.6-.325.1625-.6.3-.6125.3-.125 0 0-.85.1625-1.2.6375-1.35 2.3625-1.9875 4.3375-1.625l.6125.1125-.175-.325c-.325-.625-3.3875-4.35-4.3875-5.35-1.3375-1.325-2.175-1.95-3.675-2.7125-3.075-1.575-6.8375-2.7375-10.2-3.15-1.55-.2-5.325-.0875-6.4875.175-1.95.45-4.875 1.9125-8.0375 4.0125-3.5125 2.3375-5.7125 4.5-7 6.85l-.4625.8375.3125 1.1625c.625 2.2375.575 3.325-.3625 7.925-.5125 2.5125-.5875 3.05-.6 4.5375 0 1.5875.025 1.825.525 3.825.6375 2.6125.725 3.175.525 3.5375-.2625.5-1.3625.9-2.675.975l-1.1625.075-.2875-1.1625c-.7125-2.8875-2.05-4.25-4.1375-4.25-2.5 0-4.5875 1.5875-5.4375 4.125-.2875.85-.3125 2.6-.0625 3.75.25 1.125.9875 2.925 1.575 3.8125 1.0875 1.6625 2.6875 2.825 4.125 3 1.175.15 1.6875 0 2.8125-.8125.9-.65 1.6625-1 1.825-.8375.1375.1375.1625 1 .025 1.25-.075.15-.4625.6375-.8625 1.075-.85.925-.95 1.25-.7375 2.5375.5 2.9875 2.4625 7.9625 4.1375 10.425 1.05 1.5625 2.4 2.4875 4.525 3.1 1.3625.4 3.9.7625 5.65.8.7.025.775 0 1.1625-.4125zm-13.975-31.85c0-.025-.2375-.2625-.525-.525l-.5375-.5.5.5375c.45.4875.5625.5875.5625.4875zm-4.5875-2.3c-.1625-.025-.4375-.025-.625 0-.2.025-.0625.05.275.05.35 0 .5-.025.35-.05z"/><path d="m96.4375 98.875-1.25-.0625.5-.25c.275-.125.7625-.2375 1.1-.2375.325-.0125.5875-.05.5875-.1 0-.1375 1.1-.125 1.175.0125.0375.0625.3375.075.65.0375.45-.05.5625-.025.4875.1-.0625.1125-.025.125.1625.075.2375-.075 2.525.375 2.525.5 0 .075-4.3875.0125-5.9375-.075z"/><path d="m95.55 95.6375c.275-.3 1.5-.6875 1.8875-.5875.1625.0375.3375.025.375-.05.0875-.1375.725-.175.8375-.05.0375.0375.425.0875.8625.1125s1.1125.1125 1.4875.2l.6875.1625-.625.0875c-1.1875.1875-3.5.3625-4.6125.3625-1.0875 0-1.1125-.0125-.9-.2375z"/><path d="m94.2125 93.9625c.975-1.25 3.0125-2.2 5.1-2.4l.75-.0625-.5.2375c-.275.125-1.1625.625-1.975 1.1125-1.4625.875-2.175 1.175-3.1375 1.35l-.5.0875z"/><path d="m78.4875 81.775c-.575-.475-.2125-1.525.5375-1.525.7625 0 1.1375.975.575 1.5-.3375.3125-.7375.325-1.1125.025z"/><path d="m77.525 77.375c-.1625-.15-.275-.4125-.275-.6125 0-.4125.4625-.8875.8625-.8875.35 0 .8875.525.8875.875s-.5375.875-.9125.875c-.1625 0-.4125-.1125-.5625-.25z"/><path d="m73.725 55.45c-2.0875-.475-3-1.175-4.7125-3.575-.375-.5125-.975-1.2625-1.3375-1.65-.375-.3875-.675-.7625-.675-.85 0-.15.5125-.375.85-.375.1375 0 .35.275.5875.725.9875 1.9 3.0375 3.0375 6.275 3.4625.95.125 2.5125.1875 4.7375.1875h3.3125l-.4.575c-.45.6625-1.175 1.05-2.55 1.3625-1.1875.275-5.1.3625-6.0875.1375z"/><path d="m78.375 50.55c-3.6-.25-6.9125-1.3625-8.3875-2.8375-.375-.375-.775-.8625-.9-1.075l-.225-.3875.55.2375c1.6625.7125 4.475 1.125 8.475 1.225l2.9625.075.075.45c.0375.25.075.8875.075 1.425v.9625l-1.025-.025c-.575-.0125-1.2875-.0375-1.6-.05z"/><path d="m82.275 49 .0375-1.4125 1.1625-.2375c1.4625-.2875 2.6125-.75 4.8375-1.925.975-.5125 1.8125-.925 1.85-.925.1125 0-.575 1.15-1.2375 2.075-.6625.95-2.1125 2.3-2.975 2.7875-.825.475-2 .85-2.9625.9625l-.75.0875z"/><path d="m75.65 45.4375c-.5-.6125-.775-1.425-.775-2.275 0-.6375.3-1.6625.5-1.6625.05 0 .2125.475.3625 1.05.2125.775.375 1.1375.65 1.4.375.3625.3875.3625 1.9625.3625 1.45-.0125 1.6875-.0375 2.7125-.4.625-.225 2.05-.825 3.1875-1.3375 2.275-1.05 2.4375-1.1875 2.5875-2.4375.1-.8625-.25-1.5375-1.5625-3.05-3.0875-3.5625-4.3875-5.425-5.3375-7.6875-.7375-1.7625-1.0625-3.9375-.6125-4.1125.2625-.1.5125.2375.675.9.5375 2.1375 3.9625 6.975 7.475 10.5625.8375.8625 1.5625 1.7 1.6125 1.85.0375.1625-.05.7-.2125 1.1875-.15.5-.3375 1.175-.4125 1.5-.1375.5875-.1625.6125-1.5375 1.4625-3.525 2.1625-5.8125 2.95-9.0625 3.0875l-1.8125.075z"/><path d="m39.95 40.975c-.6-1.2625-.7125-3.2125-.25-4.5375.2875-.8375.25-.9375-.35-.9375-.425 0-.6125.075-.95.4125-.4125.3875-.425.3875-.3375.0875.175-.625.7125-1.3875 1.1875-1.7.6375-.425 1.3125-.5 2.1-.25 1.775.5875 3.025 2.4625 3.025 4.525 0 .6-.0375.8125-.15.775-.0875-.025-.4625-.6125-.8125-1.3-.775-1.4625-1-1.675-1.725-1.675-.4375 0-.6.0625-.7875.3125-.4.5-.575 1.5-.575 3.275-.0125.9125-.025 1.6625-.0375 1.6625s-.1625-.3-.3375-.65z"/><path d="m67.6875 33.175c-1.975-.4875-2.725-1.1875-2.3125-2.1875.1875-.425.3375-.45 1.875-.175 1.55.275 2.8.25 3.4625-.075.3-.1375.5375-.325.5375-.4 0-.0875-.1875-.4625-.4125-.8375-1.0375-1.7375-1.7875-3.6625-1.925-4.875-.0875-.9375.075-.9625.4625-.0875 1.2625 2.8375 1.4625 3.1875 2.4875 4.2625 1.0625 1.1375 1.25 1.5375 1.0875 2.4-.1125.55-.9125 1.3625-1.7 1.7125-.4375.2-.875.2625-1.9375.2875-.75.025-1.4875.0125-1.625-.025z"/><path d="m87.5375 31.8625c-.5375-.1625-1.1375-.7875-1.2375-1.3-.125-.7-.1-.7125 2.275-.9375 1.45-.1375 2.175-.3125 2.175-.525 0-.075-.225-.725-.5-1.4625-.65-1.7375-.875-2.6625-.875-3.5125l.0125-.6875 1.175 2.4c.6375 1.325 1.375 2.75 1.625 3.15.3625.6.425.8.325 1-.3375.625-1.8 1.475-3.1 1.8125-.8375.225-1.275.2375-1.875.0625z"/><path d="m57.7 22.6c-.4375-.6125-.0625-2.275.7625-3.5125 1.475-2.1875 3.9-3.75 5.8-3.7375 1.3875.0125 2.7375 1.2125 2.3875 2.1375-.1.2875-.1375.2875-1.85.3125-1.6625.0125-1.775.025-2.55.4-1.4875.7125-2.6 1.85-3.65 3.7625-.275.5-.55.9125-.6.9125-.0625 0-.2-.125-.3-.275z"/></g></svg>